/* XPM */
static char * icon_xpm[] = {
"32 32 335 2",
"  	c None",
". 	c #FFADBE",
"+ 	c #FFAEBC",
"@ 	c #FFAFBB",
"# 	c #FFAFB9",
"$ 	c #FFB0B8",
"% 	c #FFB1B6",
"& 	c #FFB2B4",
"* 	c #FFB3B3",
"= 	c #FFB3B1",
"- 	c #FFB4B0",
"; 	c #FFB5AE",
"> 	c #FFB6AD",
", 	c #FFB7AB",
"' 	c #FFB8A9",
") 	c #FFB8A8",
"! 	c #FFB9A6",
"~ 	c #FFBAA5",
"{ 	c #FFBBA3",
"] 	c #FFBCA1",
"^ 	c #FFBCA0",
"/ 	c #FFBD9E",
"( 	c #FFBE9D",
"_ 	c #FFBF9B",
": 	c #FFC099",
"< 	c #FFC098",
"[ 	c #FFC196",
"} 	c #FFC295",
"| 	c #FFC393",
"1 	c #FFC491",
"2 	c #FFC590",
"3 	c #FFC58E",
"4 	c #FFC68D",
"5 	c #FFACC0",
"6 	c #FFABC1",
"7 	c #DAA990",
"8 	c #FFABC3",
"9 	c #FEB4B0",
"0 	c #D5A2A0",
"a 	c #9A868C",
"b 	c #E5AAA3",
"c 	c #C3998F",
"d 	c #021379",
"e 	c #7F6987",
"f 	c #FFAAC4",
"g 	c #5B6F75",
"h 	c #124F5B",
"i 	c #004456",
"j 	c #004158",
"k 	c #DEA6A2",
"l 	c #46467F",
"m 	c #001577",
"n 	c #031479",
"o 	c #E6B191",
"p 	c #FFA9C6",
"q 	c #F4ADB1",
"r 	c #014D50",
"s 	c #004A52",
"t 	c #004754",
"u 	c #F2AFAA",
"v 	c #EFB598",
"w 	c #051E74",
"x 	c #001875",
"y 	c #8D7388",
"z 	c #FFA8C8",
"A 	c #CA9DA1",
"B 	c #00504D",
"C 	c #004D50",
"D 	c #084A57",
"E 	c #A2858C",
"F 	c #001E71",
"G 	c #001B73",
"H 	c #5F5583",
"I 	c #FFA7C9",
"J 	c #9E8D8E",
"K 	c #00534B",
"L 	c #1C565D",
"M 	c #50547C",
"N 	c #00216F",
"O 	c #B9928E",
"P 	c #FFA7CB",
"Q 	c #727F7B",
"R 	c #005649",
"S 	c #316063",
"T 	c #F4B69F",
"U 	c #092C6D",
"V 	c #00246D",
"W 	c #283778",
"X 	c #FEBF99",
"Y 	c #FFA6CC",
"Z 	c #467366",
"` 	c #005947",
" .	c #105C50",
"..	c #466B6A",
"+.	c #9F868C",
"@.	c #002A69",
"#.	c #00276B",
"$.	c #927B89",
"%.	c #FFA5CE",
"&.	c #F4A9BB",
"*.	c #0C6349",
"=.	c #045D47",
"-.	c #647B74",
";.	c #5B7472",
">.	c #2D486F",
",.	c #002D67",
"'.	c #D7A596",
").	c #FFA4CF",
"!.	c #A39292",
"~.	c #006241",
"{.	c #52786B",
"].	c #76827C",
"^.	c #707D7A",
"/.	c #B99494",
"(.	c #003362",
"_.	c #23436D",
":.	c #0E326C",
"<.	c #FEBBA0",
"[.	c #FFA3D1",
"}.	c #467A62",
"|.	c #00653F",
"1.	c #BA989E",
"2.	c #6D8078",
"3.	c #005C45",
"4.	c #848683",
"5.	c #455B72",
"6.	c #133F65",
"7.	c #7A7383",
"8.	c #003064",
"9.	c #415176",
"0.	c #FFA2D3",
"a.	c #E6A3B8",
"b.	c #036C3D",
"c.	c #247150",
"d.	c #FEABC0",
"e.	c #657F73",
"f.	c #005F43",
"g.	c #858783",
"h.	c #D1A09E",
"i.	c #003B5C",
"j.	c #9D878C",
"k.	c #5D657A",
"l.	c #756F82",
"m.	c #FFA2D4",
"n.	c #8B8F86",
"o.	c #006E39",
"p.	c #8A8D85",
"q.	c #5E7F6F",
"r.	c #708179",
"s.	c #415F6E",
"t.	c #3C5A6E",
"u.	c #FEB7AB",
"v.	c #2B4E6B",
"w.	c #003560",
"x.	c #95818A",
"y.	c #FFA1D6",
"z.	c #2E7D4F",
"A.	c #07733A",
"B.	c #EBA4BB",
"C.	c #5B806D",
"D.	c #5A7C6E",
"E.	c #97878B",
"F.	c #054658",
"G.	c #D4A19F",
"H.	c #F6B2AA",
"I.	c #033C5D",
"J.	c #00385E",
"K.	c #AB8D90",
"L.	c #FFA0D7",
"M.	c #BA9AA2",
"N.	c #007732",
"O.	c #5B8669",
"P.	c #58816A",
"Q.	c #00683D",
"R.	c #457862",
"S.	c #E0A6A8",
"T.	c #0C4F57",
"U.	c #77797F",
"V.	c #C89C9B",
"W.	c #003E5A",
"X.	c #C09896",
"Y.	c #FF9FD9",
"Z.	c #FEA4CE",
"`.	c #30854C",
" +	c #007A30",
".+	c #C39CA7",
"++	c #548167",
"@+	c #006B3B",
"#+	c #2F7456",
"$+	c #446A69",
"%+	c #205A5D",
"&+	c #F5AFAF",
"*+	c #96868B",
"=+	c #D5A39E",
"-+	c #FF9EDB",
";+	c #A29794",
">+	c #00802C",
",+	c #2C844A",
"'+	c #518264",
")+	c #197148",
"!+	c #9A8C8D",
"~+	c #01534B",
"{+	c #BE989B",
"]+	c #67737A",
"^+	c #EBADA6",
"/+	c #FF9EDC",
"(+	c #F8A1CF",
"_+	c #1E893C",
":+	c #00832A",
"<+	c #94958B",
"[+	c #538564",
"}+	c #007136",
"|+	c #056F3C",
"1+	c #E2A5AE",
"2+	c #0E5E4D",
"3+	c #757F7C",
"4+	c #4D6A6F",
"5+	c #034557",
"6+	c #FDB4AD",
"7+	c #FF9DDE",
"8+	c #8B9785",
"9+	c #008926",
"0+	c #0C8730",
"a+	c #F1A1C8",
"b+	c #598867",
"c+	c #007434",
"d+	c #EDA5BC",
"e+	c #477565",
"f+	c #306B5B",
"g+	c #F9ADB8",
"h+	c #386366",
"i+	c #15505C",
"j+	c #FF9CDF",
"k+	c #EE9ECD",
"l+	c #118F2E",
"m+	c #008B24",
"n+	c #80967D",
"o+	c #5E8A6A",
"p+	c #AD9699",
"q+	c #FEABC2",
"r+	c #728479",
"s+	c #096545",
"t+	c #D6A0AA",
"u+	c #235D5B",
"v+	c #2B5C62",
"w+	c #FF9BE1",
"x+	c #629866",
"y+	c #00911F",
"z+	c #169032",
"A+	c #F3A0CE",
"B+	c #648D6D",
"C+	c #588667",
"D+	c #F7A7C2",
"E+	c #548068",
"F+	c #948E8A",
"G+	c #0E5851",
"H+	c #2A5E60",
"I+	c #FF9AE3",
"J+	c #A89C9B",
"K+	c #00971B",
"L+	c #00941D",
"M+	c #94998B",
"N+	c #729075",
"O+	c #007D2E",
"P+	c #057835",
"Q+	c #929189",
"R+	c #397D57",
"S+	c #4A7D63",
"T+	c #0B5452",
"U+	c #FF9AE4",
"V+	c #DF9CC7",
"W+	c #0F9D23",
"X+	c #009A19",
"Y+	c #249836",
"Z+	c #FA9ED7",
"`+	c #8C9586",
" @	c #26794C",
".@	c #EEA5BD",
"+@	c #E6A6B0",
"@@	c #ECAAAE",
"#@	c #FF99E6",
"$@	c #FB9AE1",
"%@	c #39A141",
"&@	c #00A015",
"*@	c #009D17",
"=@	c #A99C9C",
"-@	c #A79898",
";@	c #117A3C",
">@	c #D99FB3",
",@	c #EDA7B5",
"'@	c #CC9DA2",
")@	c #FF98E7",
"!@	c #7BA177",
"~@	c #00A611",
"{@	c #00A313",
"]@	c #349F3F",
"^@	c #FE9CDE",
"/@	c #CA9DB0",
"(@	c #008628",
"_@	c #047E31",
":@	c #BD9BA4",
"<@	c #FDABBF",
"[@	c #026044",
"}@	c #AD9295",
"|@	c #BF9DB1",
"1@	c #02AC0F",
"2@	c #00A90F",
"3@	c #BD9CAD",
"4@	c #FCA1D4",
"5@	c #118B32",
"6@	c #99968E",
"7@	c #1C6A4F",
"8@	c #8D8987",
"9@	c #CC9CBE",
"0@	c #5FA65D",
"a@	c #0AAB16",
"b@	c #47A54B",
"c@	c #6C946F",
"d@	c #178B36",
"e@	c #B39AA0",
"f@	c #437761",
"g@	c #0D6647",
"h@	c #4A7667",
"i@	c #B9979B",
"j@	c #FF95EC",
"k@	c #FF96EB",
"l@	c #F298DE",
"m@	c #E69AD2",
"n@	c #FDA0D6",
"o@	c #EEA0CA",
"p@	c #E3A4B4",
"q@	c #FBAABF",
"r@	c #FF95EE",
"s@	c #FF97E9",
"t@	c #FF94EF",
". + @ # $ % & * = - ; > , ' ) ! ~ { ] ^ / ( _ : < [ } | 1 2 3 4 ",
"5 . + @ # $ % & * = - ; > , ' ) ! ~ { ] ^ / ( _ : < [ } | 1 2 3 ",
"6 5 . + @ # $ % & * = - ; > , ' ) ! ~ { ] ^ / ( _ : < [ } 7 1 2 ",
"8 6 5 . + @ # $ % & * = 9 0 a b ' ) ! ~ { ] ^ / ( _ : < c d e 1 ",
"f 8 6 5 . + @ # $ % & g h i j k , ' ) ! ~ { ] ^ / ( _ : l m n o ",
"p f 8 6 5 . + @ # $ q r s t i u > , ' ) ! ~ { ] ^ / ( v w x m y ",
"z p f 8 6 5 . + @ # A B C s D - ; > , ' ) ! ~ { ] ^ / E F G x H ",
"I z p f 8 6 5 . + @ J K B C L = - ; > , ' ) ! ~ { ] ^ M N F G O ",
"P I z p f 8 6 5 . + Q R K B S * = - ; > , ' ) ! ~ { T U V N W X ",
"Y P I z p f 8 6 5 . Z `  .K ..& * = - ; > , ' ) ! ~ +.@.#.V $._ ",
"%.Y P I z p f 8 6 &.*.=.-.R ;.% & * = - ; > , ' ) ! >.,.@.#.'.( ",
").%.Y P I z p f 8 !.~.{.].` ^.$ % & * = - ; > , ' /.(._.,.:.<./ ",
"[.).%.Y P I z p f }.|.1.2.3.4.# $ % & * = - ; > , 5.6.7.8.9.] ^ ",
"0.[.).%.Y P I z a.b.c.d.e.f.g.@ # $ % & * = - ; h.i.j.k.(.l.{ ] ",
"m.0.[.).%.Y P I n.o.p.8 q.~.r.+ @ # $ % & * = 9 s.t.u.v.w.x.~ { ",
"y.m.0.[.).%.Y P z.A.B.f C.|.D.. + @ # $ % & * E.F.G.H.I.J.K.! ~ ",
"L.y.m.0.[.).%.M.N.O.z p P.Q.R.5 . + @ # $ % S.T.U.- V.W.i.X.) ! ",
"Y.L.y.m.0.[.Z.`. +.+I z ++@+#+6 5 . + @ # $ $+%+&+= *+j W.=+' ) ",
"-+Y.L.y.m.0.;+>+,+Y P I '+o.)+8 6 5 . + @ !+~+{+& * ]+i j ^+, ' ",
"/+-+Y.L.y.(+_+:+<+%.Y P [+}+|+f 8 6 5 . 1+2+3+$ % & 4+t 5+6+> , ",
"7+/+-+Y.L.8+9+0+a+).%.Y b+c+}+d+f 8 6 5 e+f+g+# $ % h+s i+- ; > ",
"j+7+/+-+k+l+m+n+0.[.).%.o+N.c+p+p f q+r+s+t++ @ # $ u+C v+= - ; ",
"w+j+7+/+x+y+z+A+m.0.[.).B+ +N.C+z D+E+Q.F+5 . + @ # G+B H+* = - ",
"I+w+j+J+K+L+M+L.y.m.0.[.N+O+ +P+Q+R+o.S+8 6 5 . + g+R K T+& * = ",
"U+I+V+W+X+Y+Z+Y.L.y.m.0.`+>+O+ +N.c+ @.@f 8 6 5 . +@` R K @@& * ",
"#@$@%@&@*@=@/+-+Y.L.y.m.-@:+>+O+ +;@>@z p f 8 6 5 ,@3.` R '@% & ",
")@!@~@{@]@^@7+/+-+Y.L.y./@(@:+>+_@:@P I z p f 8 6 <@[@3.` }@$ % ",
"|@1@2@~@3@w+j+7+/+-+Y.L.4@5@(@:+6@%.Y P I z p f 8 6 7@f.3.8@# $ ",
"9@0@a@b@U+I+w+j+7+/+-+Y.L.c@d@e@[.).%.Y P I z p f 8 f@g@h@i@@ # ",
"j@k@l@m@#@U+I+w+j+7+/+-+Y.n@o@m.0.[.).%.Y P I z p f p@q@5 . + @ ",
"r@j@k@s@)@#@U+I+w+j+7+/+-+Y.L.y.m.0.[.).%.Y P I z p f 8 6 5 . + ",
"t@r@j@k@s@)@#@U+I+w+j+7+/+-+Y.L.y.m.0.[.).%.Y P I z p f 8 6 5 . "};
